<mxfile host="Electron" modified="2024-10-14T09:44:26.358Z" agent="Mozilla/5.0 (Macintosh; Intel Mac OS X 10_15_7) AppleWebKit/537.36 (KHTML, like Gecko) draw.io/24.4.6 Chrome/124.0.6367.207 Electron/30.0.6 Safari/537.36" etag="9D18d5DExCRrqQe5ErJC" version="24.4.6" type="device">
  <diagram name="Seite-1" id="DsO8c-Gn_i0nrm-0L43z">
    <mxGraphModel dx="988" dy="578" grid="1" gridSize="10" guides="1" tooltips="1" connect="1" arrows="1" fold="1" page="1" pageScale="1" pageWidth="1169" pageHeight="827" math="0" shadow="0">
      <root>
        <mxCell id="0" />
        <mxCell id="1" parent="0" />
        <mxCell id="6oGIDxXDkEBDxz7cuyZg-5" style="edgeStyle=orthogonalEdgeStyle;rounded=0;orthogonalLoop=1;jettySize=auto;html=1;exitX=0.5;exitY=1;exitDx=0;exitDy=0;entryX=0.5;entryY=0;entryDx=0;entryDy=0;endArrow=blockThin;endFill=1;" edge="1" parent="1" source="6oGIDxXDkEBDxz7cuyZg-1" target="6oGIDxXDkEBDxz7cuyZg-2">
          <mxGeometry relative="1" as="geometry" />
        </mxCell>
        <mxCell id="6oGIDxXDkEBDxz7cuyZg-1" value="&lt;i&gt;START&lt;/i&gt;" style="rounded=1;whiteSpace=wrap;html=1;" vertex="1" parent="1">
          <mxGeometry x="120" y="40" width="120" height="40" as="geometry" />
        </mxCell>
        <mxCell id="6oGIDxXDkEBDxz7cuyZg-6" style="edgeStyle=orthogonalEdgeStyle;rounded=0;orthogonalLoop=1;jettySize=auto;html=1;exitX=0.5;exitY=1;exitDx=0;exitDy=0;entryX=0.5;entryY=0;entryDx=0;entryDy=0;endArrow=blockThin;endFill=1;" edge="1" parent="1" source="6oGIDxXDkEBDxz7cuyZg-2" target="6oGIDxXDkEBDxz7cuyZg-4">
          <mxGeometry relative="1" as="geometry" />
        </mxCell>
        <mxCell id="6oGIDxXDkEBDxz7cuyZg-2" value="numbers = []" style="rounded=0;whiteSpace=wrap;html=1;fontFamily=Courier New;" vertex="1" parent="1">
          <mxGeometry x="120" y="100" width="120" height="40" as="geometry" />
        </mxCell>
        <mxCell id="6oGIDxXDkEBDxz7cuyZg-9" style="edgeStyle=orthogonalEdgeStyle;rounded=0;orthogonalLoop=1;jettySize=auto;html=1;exitX=0.5;exitY=1;exitDx=0;exitDy=0;entryX=0.5;entryY=0;entryDx=0;entryDy=0;endArrow=blockThin;endFill=1;" edge="1" parent="1" source="6oGIDxXDkEBDxz7cuyZg-3" target="6oGIDxXDkEBDxz7cuyZg-8">
          <mxGeometry relative="1" as="geometry" />
        </mxCell>
        <mxCell id="6oGIDxXDkEBDxz7cuyZg-3" value="numbers.append(â†´&lt;div&gt;randint(1,6))&lt;/div&gt;" style="rounded=0;whiteSpace=wrap;html=1;fontFamily=Courier New;" vertex="1" parent="1">
          <mxGeometry x="120" y="280" width="120" height="40" as="geometry" />
        </mxCell>
        <mxCell id="6oGIDxXDkEBDxz7cuyZg-15" style="edgeStyle=orthogonalEdgeStyle;rounded=0;orthogonalLoop=1;jettySize=auto;html=1;exitX=0.5;exitY=1;exitDx=0;exitDy=0;entryX=0.5;entryY=0;entryDx=0;entryDy=0;endArrow=blockThin;endFill=1;" edge="1" parent="1" source="6oGIDxXDkEBDxz7cuyZg-4" target="6oGIDxXDkEBDxz7cuyZg-13">
          <mxGeometry relative="1" as="geometry" />
        </mxCell>
        <mxCell id="6oGIDxXDkEBDxz7cuyZg-4" value="Eingabe&amp;nbsp;&lt;div&gt;&lt;font face=&quot;Courier New&quot;&gt;six_count&lt;/font&gt;&lt;/div&gt;" style="shape=parallelogram;perimeter=parallelogramPerimeter;whiteSpace=wrap;html=1;fixedSize=1;" vertex="1" parent="1">
          <mxGeometry x="120" y="160" width="120" height="40" as="geometry" />
        </mxCell>
        <mxCell id="6oGIDxXDkEBDxz7cuyZg-11" style="edgeStyle=orthogonalEdgeStyle;rounded=0;orthogonalLoop=1;jettySize=auto;html=1;exitX=0.5;exitY=1;exitDx=0;exitDy=0;entryX=0.5;entryY=0;entryDx=0;entryDy=0;endArrow=blockThin;endFill=1;" edge="1" parent="1" source="6oGIDxXDkEBDxz7cuyZg-8" target="6oGIDxXDkEBDxz7cuyZg-10">
          <mxGeometry relative="1" as="geometry" />
        </mxCell>
        <mxCell id="6oGIDxXDkEBDxz7cuyZg-19" style="edgeStyle=orthogonalEdgeStyle;rounded=0;orthogonalLoop=1;jettySize=auto;html=1;entryX=0;entryY=0.5;entryDx=0;entryDy=0;endArrow=blockThin;endFill=1;" edge="1" parent="1" source="6oGIDxXDkEBDxz7cuyZg-8" target="6oGIDxXDkEBDxz7cuyZg-13">
          <mxGeometry relative="1" as="geometry">
            <Array as="points">
              <mxPoint x="80" y="360" />
              <mxPoint x="80" y="240" />
            </Array>
          </mxGeometry>
        </mxCell>
        <mxCell id="6oGIDxXDkEBDxz7cuyZg-8" value="&lt;p style=&quot;line-height: 100%;&quot;&gt;&lt;font size=&quot;1&quot; style=&quot;&quot; face=&quot;Courier New&quot;&gt;&lt;span style=&quot;font-size: 8px;&quot;&gt;numbers[-1] == 6&lt;/span&gt;&lt;/font&gt;&lt;/p&gt;" style="rhombus;whiteSpace=wrap;html=1;spacingBottom=5;" vertex="1" parent="1">
          <mxGeometry x="120" y="340" width="120" height="40" as="geometry" />
        </mxCell>
        <mxCell id="6oGIDxXDkEBDxz7cuyZg-18" style="edgeStyle=orthogonalEdgeStyle;rounded=0;orthogonalLoop=1;jettySize=auto;html=1;exitX=0.5;exitY=1;exitDx=0;exitDy=0;endArrow=blockThin;endFill=1;entryX=0;entryY=0.5;entryDx=0;entryDy=0;" edge="1" parent="1" source="6oGIDxXDkEBDxz7cuyZg-10" target="6oGIDxXDkEBDxz7cuyZg-13">
          <mxGeometry relative="1" as="geometry">
            <mxPoint x="180" y="210" as="targetPoint" />
            <Array as="points">
              <mxPoint x="180" y="460" />
              <mxPoint x="80" y="460" />
              <mxPoint x="80" y="240" />
            </Array>
          </mxGeometry>
        </mxCell>
        <mxCell id="6oGIDxXDkEBDxz7cuyZg-10" value="six_count -= 1" style="rounded=0;whiteSpace=wrap;html=1;fontFamily=Courier New;" vertex="1" parent="1">
          <mxGeometry x="120" y="400" width="120" height="40" as="geometry" />
        </mxCell>
        <mxCell id="6oGIDxXDkEBDxz7cuyZg-14" style="edgeStyle=orthogonalEdgeStyle;rounded=0;orthogonalLoop=1;jettySize=auto;html=1;exitX=0.5;exitY=1;exitDx=0;exitDy=0;entryX=0.5;entryY=0;entryDx=0;entryDy=0;endArrow=blockThin;endFill=1;" edge="1" parent="1" source="6oGIDxXDkEBDxz7cuyZg-13" target="6oGIDxXDkEBDxz7cuyZg-3">
          <mxGeometry relative="1" as="geometry" />
        </mxCell>
        <mxCell id="6oGIDxXDkEBDxz7cuyZg-17" style="edgeStyle=orthogonalEdgeStyle;rounded=0;orthogonalLoop=1;jettySize=auto;html=1;exitX=1;exitY=0.5;exitDx=0;exitDy=0;entryX=0;entryY=0.5;entryDx=0;entryDy=0;endArrow=blockThin;endFill=1;" edge="1" parent="1" source="6oGIDxXDkEBDxz7cuyZg-13" target="6oGIDxXDkEBDxz7cuyZg-20">
          <mxGeometry relative="1" as="geometry" />
        </mxCell>
        <mxCell id="6oGIDxXDkEBDxz7cuyZg-13" value="&lt;p style=&quot;line-height: 100%;&quot;&gt;&lt;font size=&quot;1&quot; style=&quot;&quot; face=&quot;Courier New&quot;&gt;&lt;span style=&quot;font-size: 8px;&quot;&gt;six_count == 0&lt;/span&gt;&lt;/font&gt;&lt;/p&gt;" style="rhombus;whiteSpace=wrap;html=1;spacingBottom=5;" vertex="1" parent="1">
          <mxGeometry x="120" y="220" width="120" height="40" as="geometry" />
        </mxCell>
        <mxCell id="6oGIDxXDkEBDxz7cuyZg-16" value="&lt;i&gt;ENDE&lt;/i&gt;" style="rounded=1;whiteSpace=wrap;html=1;" vertex="1" parent="1">
          <mxGeometry x="380" y="220" width="120" height="40" as="geometry" />
        </mxCell>
        <mxCell id="6oGIDxXDkEBDxz7cuyZg-22" style="edgeStyle=orthogonalEdgeStyle;rounded=0;orthogonalLoop=1;jettySize=auto;html=1;exitX=1;exitY=0.5;exitDx=0;exitDy=0;entryX=0;entryY=0.5;entryDx=0;entryDy=0;endArrow=blockThin;endFill=1;" edge="1" parent="1" source="6oGIDxXDkEBDxz7cuyZg-20" target="6oGIDxXDkEBDxz7cuyZg-16">
          <mxGeometry relative="1" as="geometry" />
        </mxCell>
        <mxCell id="6oGIDxXDkEBDxz7cuyZg-20" value="Ausgabe&amp;nbsp;&lt;div&gt;&lt;font face=&quot;Courier New&quot;&gt;len(numbers&lt;/font&gt;&lt;/div&gt;&lt;div&gt;&lt;font face=&quot;Courier New&quot;&gt;sum(numbers)&lt;/font&gt;&lt;/div&gt;" style="shape=parallelogram;perimeter=parallelogramPerimeter;whiteSpace=wrap;html=1;fixedSize=1;" vertex="1" parent="1">
          <mxGeometry x="250" y="213" width="120" height="54" as="geometry" />
        </mxCell>
      </root>
    </mxGraphModel>
  </diagram>
</mxfile>
